<svg xmlns="http://www.w3.org/2000/svg" shape-rendering="geometricPrecision" viewBox="130 258 765 500" role="img" aria-label="Ticket Pilot">
<path d="M 136.766 640.832 C 140.047 640.834 143.328 640.598 146.609 640.532 C 147.375 639.452 146.753 636.354 146.75 635.006 C 146.737 630.17 146.829 625.35 146.965 620.52 C 148.452 619.623 151.225 620.202 152.949 620.206 C 157.598 620.219 162.285 620.031 166.925 620.273 C 166.59 624.179 166.906 628.301 166.917 632.231 C 166.924 634.892 166.642 638.084 167.17 640.686 C 172.636 640.139 178.506 640.745 184.008 640.773 C 185.418 640.78 188.862 640.154 189.96 640.908 C 189.834 644.108 190.138 647.382 190.164 650.593 C 190.183 653.054 189.879 655.763 190.247 658.19 C 184.76 657.723 179.012 658.201 173.5 658.235 C 171.666 658.246 168.621 657.655 167.041 658.59 C 167.04 668.39 167.045 678.187 167.077 687.992 C 167.09 692.033 166.213 697.558 168.895 700.949 C 170.28 702.699 172.308 703.136 174.387 703.499 C 178.567 704.228 184.189 703.119 188.103 701.594 C 188.931 705.026 189.514 708.474 190.498 711.882 C 191.108 713.995 192.119 715.928 192.795 717.99 C 192.658 718.318 191.072 718.594 190.712 718.714 C 188.25 719.533 185.723 720.105 183.222 720.788 C 171.41 724.011 157.201 721.143 150.419 710.263 C 146.805 704.465 146.708 697.608 146.736 691.007 C 146.763 684.506 146.798 678.005 146.809 671.504 C 146.814 668.434 146.855 665.364 146.87 662.293 C 146.875 661.143 147.187 659.197 146.635 658.186 C 143.407 658.051 140.136 657.864 136.909 657.997 C 136.374 655.004 136.815 651.548 136.793 648.505 C 136.776 646.026 136.352 643.27 136.766 640.832 Z" fill="rgb(1,26,54)" fill-rule="evenodd" />
<path d="M 199.434 614.573 C 199.952 612.806 200.845 611.16 202.029 609.746 C 203.21 608.334 204.721 607.119 206.38 606.318 C 216.423 601.473 227.668 610.873 224.74 621.655 C 221.146 634.89 199.835 632.912 199.092 619.044 C 199.013 617.573 199.016 615.997 199.434 614.573 Z" fill="rgb(1,26,54)" fill-rule="evenodd" />
<path d="M 201.97 675.617 C 202.334 671.966 202.066 668.166 202.076 664.497 C 202.1 656.563 202 648.621 202.153 640.689 C 208.448 639.786 215.584 640.011 221.915 640.513 C 222.678 643.417 222.126 647 222.129 650 C 222.135 656.166 222.125 662.332 222.115 668.497 C 222.099 679.663 221.999 690.833 222.07 701.998 C 222.095 705.998 222.106 709.998 222.103 713.998 C 222.102 716.111 222.379 718.367 222.021 720.445 C 217.214 720.19 212.319 720.389 207.505 720.406 C 205.773 720.413 203.609 720.811 201.947 720.503 C 201.721 705.604 201.393 690.513 201.97 675.617 Z" fill="rgb(1,26,55)" fill-rule="evenodd" />
<path d="M 233.502 680.619 C 234.186 673.148 235.04 666.143 238.926 659.516 C 250.161 640.356 274.37 632.315 294.498 642.485 C 301.614 646.08 306.223 651.472 311.16 657.506 C 308.825 659.082 305.461 659.961 302.903 661.299 C 300.671 662.465 298.538 663.849 296.399 665.17 C 295.642 665.638 295.045 666.378 294.218 666.719 C 290.723 663.135 287.684 659.788 282.864 657.952 C 280.279 656.968 277.409 656.553 274.647 656.657 C 272.11 656.753 269.667 657.235 267.326 658.227 C 248.446 666.229 249.831 697.527 269.655 703.396 C 272.758 704.314 276.084 704.485 279.277 703.984 C 283.566 703.313 287.525 701.139 290.556 698.045 C 291.798 696.777 292.945 694.537 294.454 693.671 C 297.561 695.937 300.84 697.887 304.204 699.746 C 306.193 700.845 308.691 701.685 310.39 703.21 C 308.601 707.604 303.854 711.511 300.139 714.271 C 287.631 723.564 270.85 725.376 256.763 718.337 C 242.048 710.983 234.092 696.77 233.502 680.619 Z" fill="rgb(1,26,54)" fill-rule="evenodd" />
<path d="M 320.452 610.331 C 322.322 609.675 325.028 610.137 327.007 610.134 C 331.466 610.128 335.919 609.963 340.375 609.952 C 340.779 613.375 340.364 617.05 340.357 620.503 C 340.343 627.835 340.34 635.168 340.31 642.501 C 340.282 649.5 340.306 656.499 340.324 663.498 C 340.333 666.869 340.715 670.415 340.35 673.766 C 340.419 673.927 341.99 672.245 342.133 672.092 C 343.406 670.729 344.712 669.4 345.961 668.014 C 349.475 664.114 352.903 660.136 356.42 656.239 C 359.655 652.656 363.009 649.181 366.389 645.732 C 367.943 644.146 369.54 641.941 371.445 640.777 C 372.872 639.906 376.248 640.462 377.955 640.441 C 381.807 640.394 385.66 640.394 389.512 640.357 C 391.416 640.339 393.707 639.994 395.555 640.404 C 395.212 641.607 393.485 642.795 392.599 643.683 C 390.486 645.803 388.554 648.073 386.484 650.233 C 378.98 658.064 371.735 666.167 364.3 674.071 C 364.489 675.159 365.586 676.329 366.204 677.247 C 367.848 679.692 369.687 681.989 371.445 684.351 C 377.718 692.781 384.039 701.199 390.636 709.378 C 392.861 712.136 394.989 715.009 397.335 717.665 C 397.77 718.158 399.654 719.756 399.566 720.312 C 393.608 720.855 387.482 720.35 381.505 720.353 C 379.51 720.354 376.028 721.011 374.243 720.182 C 372.334 718.206 370.776 715.839 369.102 713.665 C 365.249 708.662 361.24 703.779 357.456 698.721 C 355.37 695.933 353.325 691.554 350.389 689.608 C 347.828 692.194 345.253 694.989 342.938 697.8 C 342.22 698.67 340.898 699.821 340.66 700.956 C 339.714 705.461 340.446 710.916 340.455 715.508 C 340.457 717.025 340.856 718.995 340.408 720.439 C 333.884 720.311 326.957 721.22 320.48 720.395 C 320.089 709.442 320.368 698.461 320.372 687.502 C 320.381 661.784 320.69 636.046 320.452 610.331 Z" fill="rgb(1,26,54)" fill-rule="evenodd" />
<path d="M 345.901 341.158 C 349.787 342.108 353.586 344.636 357.203 346.337 C 364.742 349.883 372.235 353.545 379.682 357.282 C 385.717 360.31 391.855 363.138 397.846 366.255 C 400.509 367.64 403.599 368.706 405.982 370.547 C 406.723 379.108 406.211 387.913 406.213 396.504 C 406.217 413.004 406.188 429.504 406.212 446.004 C 406.222 452.599 406.328 459.209 406.153 465.803 C 406.087 468.263 406.576 472.057 405.133 474.215 C 404.03 475.865 401.409 477.251 399.744 478.307 C 395.843 480.782 391.965 483.264 387.841 485.36 C 378.727 489.994 369.588 494.584 360.469 499.217 C 355.734 501.622 350.859 504.646 345.905 506.518 C 345.071 500.235 345.795 493.352 345.78 487.008 C 345.75 474.008 345.769 461.008 345.766 448.008 C 345.757 412.423 345.055 376.725 345.901 341.158 Z" fill="rgb(1,26,55)" fill-rule="evenodd" />
<path d="M 350.146 337.421 C 358.784 331.64 368.19 326.626 377.235 321.499 C 397.457 310.037 417.503 298.215 437.585 286.513 C 446.814 281.134 455.936 275.554 465.32 270.453 C 467.682 269.169 470.004 267.807 472.351 266.497 C 473.42 265.9 474.649 264.842 475.866 264.632 C 477.021 264.432 478.147 265.24 479.149 265.715 C 481.544 266.85 483.817 268.21 486.182 269.398 C 495.023 273.842 503.938 278.145 512.701 282.748 C 518.215 285.646 523.778 288.422 529.426 291.046 C 530.628 291.604 531.835 292.149 533.005 292.771 C 533.319 292.938 534.395 293.311 534.216 293.722 C 531.839 296.011 528.423 297.508 525.631 299.251 C 519.003 303.387 512.167 307.198 505.475 311.229 C 484.502 323.865 463.663 336.681 442.461 348.945 C 434.927 353.304 427.458 357.784 419.95 362.187 C 417.814 363.44 415.682 364.697 413.54 365.939 C 412.709 366.421 411.549 367.374 410.554 367.423 C 409.381 367.482 407.61 366.043 406.595 365.516 C 403.205 363.753 399.771 362.055 396.316 360.426 C 385.196 355.182 374.138 349.812 363.129 344.344 C 360.033 342.807 356.989 341.168 353.901 339.616 C 352.625 338.975 351.03 338.602 350.146 337.421 Z" fill="rgb(1,27,55)" fill-rule="evenodd" />
<path d="M 356.961 512.909 C 370.574 505.674 383.825 497.744 397.144 489.981 C 400.744 487.883 404.441 485.952 408.019 483.816 C 409.404 482.988 411.461 481.238 413.095 481.093 C 414.111 481.003 415.262 481.923 416.117 482.369 C 418.412 483.567 420.737 484.723 423.077 485.829 C 431.73 489.915 440.167 494.448 448.714 498.749 C 454.873 501.849 461.089 504.836 467.201 508.029 C 468.7 508.813 470.219 509.546 471.7 510.363 C 472.072 510.568 473.226 510.947 473.405 511.369 C 473.55 511.71 472.056 512.343 471.867 512.448 C 470.223 513.364 468.593 514.312 466.949 515.233 C 459.954 519.151 452.969 523.227 446.099 527.363 C 439.679 531.228 432.969 534.599 426.538 538.45 C 423.669 540.168 419.857 543.421 416.489 543.932 C 415.05 544.15 413.199 542.509 411.992 541.863 C 408.179 539.824 404.328 537.839 400.468 535.892 C 389.995 530.609 379.662 525.063 369.157 519.836 C 364.971 517.753 360.919 515.336 356.607 513.525 C 356.725 513.32 356.843 513.114 356.961 512.909 Z" fill="rgb(1,26,55)" fill-rule="evenodd" />
<path d="M 397.975 677.111 C 399.132 668.598 401.098 660.378 406.565 653.467 C 421.664 634.378 452.936 632.943 468.573 652.125 C 474.734 659.684 477.912 669.659 478.156 679.342 C 478.212 681.562 478.173 683.781 478.208 686 C 478.213 686.331 478.308 687.743 478.023 687.894 C 458.208 687.355 438.325 688.433 418.525 688.089 C 419.296 690.869 420.026 693.563 421.788 695.936 C 431.812 709.441 450.543 704.803 462.134 696.359 C 462.932 696.467 464.468 698.846 465.043 699.566 C 466.461 701.342 467.871 703.136 469.368 704.847 C 470.49 706.13 472.07 707.491 472.802 709.043 C 472.543 709.645 471.513 710.083 471.003 710.479 C 469.654 711.526 468.315 712.579 466.941 713.593 C 460.835 718.099 453.396 721.124 445.863 722.062 C 426.551 724.468 406.715 714.378 400.117 695.464 C 398.061 689.571 397.506 683.313 397.975 677.111 Z M 418.437 671.077 C 418.261 671.795 418.124 672.517 418.011 673.247 C 419.071 673.652 420.734 673.528 421.902 673.541 C 424.605 673.571 427.307 673.631 430.01 673.629 C 439.291 673.623 448.67 673.141 457.931 673.401 C 457.817 671.283 456.841 668.852 455.879 666.985 C 450.716 656.97 438.433 653.158 428.316 658.225 C 422.818 660.979 420.449 665.602 418.437 671.077 Z" fill="rgb(1,26,54)" fill-rule="evenodd" />
<path d="M 421.649 547.949 C 426.782 545.194 431.451 541.667 436.434 538.667 C 444.761 533.654 453.234 528.86 461.66 524.012 C 466.569 521.188 471.366 517.396 476.587 515.218 C 477.252 515.626 476.956 518.189 476.948 519.001 C 476.912 522.628 477.017 526.255 477.061 529.877 C 477.187 540.25 477.058 550.625 477.126 560.997 C 477.15 564.497 477.143 567.997 477.155 571.497 C 477.161 573.288 477.413 575.298 477.062 577.058 C 464.133 569.819 450.886 563.062 437.731 556.243 C 434.356 554.494 430.97 552.698 427.516 551.109 C 425.747 550.295 422.87 549.472 421.649 547.949 Z" fill="rgb(2,173,114)" fill-rule="evenodd" />
<path d="M 478.374 349.891 C 478.731 352.415 478.452 354.96 478.428 357.496 C 478.385 361.997 478.354 366.499 478.329 371.001 C 478.316 373.415 477.813 376.593 478.451 378.913 C 483.304 382.511 489.053 385.094 494.419 387.822 C 497.279 389.275 500.063 391.171 503.023 392.385 C 506.597 394.106 510.066 396.022 513.556 397.872 C 521.053 401.369 528.271 405.592 535.657 409.331 C 537.339 410.182 542.243 411.772 542.13 413.915 C 541.5 414.757 540.019 415.203 539.103 415.7 C 536.849 416.924 534.603 418.18 532.412 419.515 C 526.323 423.221 520.342 427.107 514.204 430.734 C 510.67 432.823 506.012 434.836 503.069 437.703 C 502.648 443.098 502.772 448.648 502.829 454.061 C 502.853 456.304 503.275 458.773 502.958 460.982 C 502.917 461.122 502.876 461.261 502.836 461.4 C 500.287 461.48 497.345 463.987 495.217 465.266 C 489.715 468.574 484.182 471.87 478.755 475.297 C 477.047 476.375 475.333 477.547 473.734 478.782 C 472.905 479.422 472.173 479.924 472.484 481.024 C 470.526 480.495 468.665 479.083 466.875 478.139 C 463.61 476.417 460.326 474.698 457.016 473.064 C 450.253 469.727 443.649 466.06 436.97 462.558 C 434.574 461.301 432.244 459.931 429.866 458.643 C 428.893 458.117 427.689 457.769 426.822 457.092 C 426.302 453.891 426.745 450.251 426.744 447.001 C 426.743 440.335 426.732 433.668 426.722 427.002 C 426.707 416.835 426.733 406.669 426.728 396.502 C 426.726 391.032 426.345 385.391 426.789 379.941 C 427.777 378.747 429.277 378.055 430.577 377.245 C 433.539 375.398 436.608 373.694 439.646 371.975 C 448.268 367.097 456.869 362.083 465.362 356.988 C 468.394 355.169 471.522 353.55 474.585 351.792 C 475.63 351.192 477.151 349.858 478.374 349.891 Z" fill="rgb(1,214,137)" fill-rule="evenodd" />
<path d="M 502.836 461.4 C 502.715 468.921 502.762 476.444 502.901 483.965 C 502.959 487.141 502.288 491.284 503.329 494.234 C 500.374 496.304 497.489 493.912 494.731 492.358 C 489.752 489.552 484.498 487.174 479.406 484.578 C 477.249 483.478 474.318 482.59 472.484 481.024 C 472.173 479.924 472.905 479.422 473.734 478.782 C 475.333 477.547 477.047 476.375 478.755 475.297 C 484.182 471.87 489.715 468.574 495.217 465.266 C 497.345 463.987 500.287 461.48 502.836 461.4 Z" fill="rgb(1,176,114)" fill-rule="evenodd" />
<path d="M 502.846 318.263 C 502.416 320.229 502.656 322.481 502.647 324.496 C 502.629 328.497 502.619 332.501 502.629 336.503 C 502.659 348.835 502.681 361.166 502.789 373.498 C 502.829 378 502.856 382.497 502.778 386.999 C 502.753 388.43 502.217 391.192 503.023 392.385 C 500.063 391.171 497.279 389.275 494.419 387.822 C 489.053 385.094 483.304 382.511 478.451 378.913 C 477.813 376.593 478.316 373.415 478.329 371.001 C 478.354 366.499 478.385 361.997 478.428 357.496 C 478.452 354.96 478.731 352.415 478.374 349.891 C 477.871 346.019 478.25 341.906 478.218 338.004 C 478.206 336.512 477.773 334.316 478.33 332.942 C 485.862 327.211 494.669 322.985 502.846 318.263 Z" fill="rgb(3,189,121)" fill-rule="evenodd" />
<path d="M 603.022 481.987 C 601.297 483.553 602.237 484.202 601.865 486.011 C 601.748 486.581 601.251 486.777 601.381 487.438 C 601.621 488.659 601.485 488.758 601.314 489.953 C 601.262 490.314 601.537 491.036 601.19 491.32 C 600.862 491.588 600.21 490.808 599.605 491.37 C 597.866 492.988 597.441 494.805 594.755 495.299 C 594.287 495.385 594.329 494.902 593.88 494.945 C 592.985 495.031 592.923 495.534 591.885 495.245 C 591.688 495.19 590.844 494.773 590.665 495.151 C 590.137 496.261 591.313 498.682 591.658 499.752 C 592.986 503.879 594.382 507.941 595.856 512.01 C 595.46 511.403 594.73 512.075 594.181 512.355 C 592.565 513.177 591.026 514.172 589.435 515.046 C 582.474 518.871 575.774 523.153 568.81 526.959 C 546.096 539.374 523.833 552.813 501.508 565.915 C 494.992 569.739 488.549 573.876 481.874 577.402 C 481.185 576.101 481.512 573.888 481.419 572.414 C 481.138 567.95 481.355 563.46 481.416 558.993 C 481.564 548.155 481.305 537.322 481.519 526.488 C 481.612 521.748 480.858 516.721 481.681 512.028 C 484.226 510.038 487.41 508.733 490.198 507.097 C 497.154 503.017 504.189 499.068 511.12 494.946 C 528.186 484.798 545.242 474.329 562.742 464.949 C 570.449 460.819 577.975 456.196 585.508 451.753 C 588.852 449.78 592.439 446.74 596.138 445.576 C 596.641 446.515 596.434 447.91 596.466 448.972 C 596.531 451.138 596.577 453.303 596.597 455.472 C 596.669 463.336 596.761 471.284 597.25 479.128 C 599.102 480.134 601.063 481.207 603.022 481.987 Z" fill="rgb(2,225,162)" fill-rule="evenodd" />
<path d="M 483.486 643.11 C 483.55 642.309 483.596 641.51 483.684 640.711 C 487.147 640.683 490.673 640.778 494.127 640.502 C 494.794 639.421 494.119 636.323 494.12 635.006 C 494.124 630.103 493.942 625.149 494.215 620.254 C 500.853 620.196 507.629 620.644 514.252 620.125 C 514.367 626.98 514.39 633.883 514.27 640.738 C 521.823 640.455 529.716 640.421 537.262 640.866 C 537.625 642.625 537.327 644.643 537.342 646.438 C 537.374 650.348 537.404 654.26 537.343 658.168 C 534.661 657.868 531.714 658.168 529.002 658.167 C 524.099 658.166 519.166 658.059 514.27 658.3 C 514.486 668.517 514.267 678.78 514.23 689.002 C 514.215 692.986 513.402 698.349 516.554 701.408 C 518.205 703.009 520.438 703.475 522.67 703.539 C 526.91 703.662 531.474 702.988 535.528 701.758 C 536.541 705.752 537.363 709.655 538.666 713.595 C 538.984 714.558 540.242 716.794 539.815 717.721 C 538.135 718.167 536.549 719.089 534.88 719.608 C 530.969 720.826 526.838 721.639 522.739 721.797 C 519.109 721.936 515.388 721.701 511.858 720.798 C 503.323 718.617 496.278 711.738 494.558 702.985 C 493.647 698.348 493.903 693.511 493.921 688.812 C 493.941 683.498 493.805 678.178 493.919 672.865 C 494.022 668.055 494.415 663.189 494.061 658.383 C 490.623 658.006 487.084 658.451 483.666 657.954 C 483.116 653.152 483.201 647.934 483.486 643.11 Z" fill="rgb(1,26,54)" fill-rule="evenodd" />
<path d="M 563.147 367.704 C 562.081 367.393 561.322 368.044 560.422 368.553 C 558.445 369.672 556.467 370.799 554.528 371.982 C 546.948 376.608 539.254 381.049 531.667 385.666 C 526.924 388.552 522.171 391.417 517.429 394.304 C 516.549 394.839 512.379 396.762 513.556 397.872 C 510.066 396.022 506.597 394.106 503.023 392.385 C 502.217 391.192 502.753 388.43 502.778 386.999 C 502.856 382.497 502.829 378 502.789 373.498 C 502.681 361.166 502.659 348.835 502.629 336.503 C 502.619 332.501 502.629 328.497 502.647 324.496 C 502.656 322.481 502.416 320.229 502.846 318.263 C 504.959 316.469 507.729 315.229 510.095 313.786 C 516.532 309.861 523.169 306.295 529.664 302.473 C 532.142 301.015 534.568 299.476 537.044 298.015 C 538.117 297.382 539.3 296.287 540.55 296.162 C 542.108 297.891 541.821 299.813 541.821 302.002 C 541.822 305.169 541.832 308.335 541.818 311.502 C 541.773 322.17 541.78 332.837 541.836 343.505 C 541.852 346.504 541.8 349.503 541.771 352.502 C 541.758 353.726 541.461 355.32 541.959 356.451 C 548.696 360.638 556.649 363.17 563.147 367.704 Z" fill="rgb(1,168,112)" fill-rule="evenodd" />
<path d="M 542.13 413.915 C 541.395 419.668 542.114 425.714 542.094 431.504 C 542.087 433.385 542.592 437.033 541.726 438.674 C 537.338 441.635 532.503 444.06 527.876 446.628 C 519.598 451.222 511.481 456.104 503.294 460.845 C 503.182 460.891 503.07 460.936 502.958 460.982 C 503.275 458.773 502.853 456.304 502.829 454.061 C 502.772 448.648 502.648 443.098 503.069 437.703 C 506.012 434.836 510.67 432.823 514.204 430.734 C 520.342 427.107 526.323 423.221 532.412 419.515 C 534.603 418.18 536.849 416.924 539.103 415.7 C 540.019 415.203 541.5 414.757 542.13 413.915 Z" fill="rgb(1,180,118)" fill-rule="evenodd" />
<path d="M 502.836 461.4 C 503.168 461.101 503.008 461.28 503.294 460.845 C 511.481 456.104 519.598 451.222 527.876 446.628 C 532.503 444.06 537.338 441.635 541.726 438.674 C 542.592 437.033 542.087 433.385 542.094 431.504 C 542.114 425.714 541.395 419.668 542.13 413.915 C 542.243 411.772 537.339 410.182 535.657 409.331 C 528.271 405.592 521.053 401.369 513.556 397.872 C 512.379 396.762 516.549 394.839 517.429 394.304 C 522.171 391.417 526.924 388.552 531.667 385.666 C 539.254 381.049 546.948 376.608 554.528 371.982 C 556.467 370.799 558.445 369.672 560.422 368.553 C 561.322 368.044 562.081 367.393 563.147 367.704 C 568.818 370.067 574.255 373.406 579.68 376.285 C 585.247 379.239 590.998 381.932 596.457 385.067 C 597.047 388.643 596.421 392.843 596.455 396.489 C 596.531 404.825 596.61 413.16 596.596 421.496 C 596.589 425.497 596.593 429.5 596.628 433.501 C 596.647 435.617 596.992 438.096 596.457 440.148 C 594.091 442.054 590.654 443.141 588.012 444.7 C 581.858 448.332 575.647 451.862 569.496 455.499 C 547.499 468.507 525.389 481.338 503.329 494.234 C 502.288 491.284 502.959 487.141 502.901 483.965 C 502.762 476.444 502.715 468.921 502.836 461.4 Z" fill="rgb(1,27,55)" fill-rule="evenodd" />
<path d="M 577.849 640.838 C 579.451 640.035 581.935 640.404 583.699 640.38 C 588.312 640.318 593.426 639.796 597.994 640.422 C 597.977 644.113 597.603 647.94 597.943 651.617 C 600.15 650.206 601.815 647.345 603.849 645.59 C 609.317 640.872 616.195 638.312 623.415 638.191 C 628.143 638.112 632.645 638.931 637.047 640.664 C 641.081 642.252 644.644 644.316 647.916 647.163 C 669.279 665.755 665.671 705.09 640.106 718.217 C 636.752 719.94 633.058 721.302 629.345 722.005 C 621.035 723.578 612.594 721.806 605.605 717.134 C 603.914 716.004 602.311 714.724 600.913 713.245 C 600.082 712.365 599.182 710.96 597.976 710.61 C 598.323 720.017 597.935 729.576 597.828 739.005 C 597.781 743.17 597.335 747.631 597.814 751.767 C 591.162 751.222 584.365 751.638 577.723 751.641 C 577.952 743.117 577.654 734.538 577.665 726.006 C 577.699 697.639 577.267 669.195 577.849 640.838 Z M 597.928 675.095 C 596.316 684.497 598.995 694.171 606.839 700.005 C 613.872 705.236 624.374 705.841 631.659 700.697 C 636.714 697.128 640.094 691.527 641.112 685.433 C 642.716 675.829 639.352 665.043 630.912 659.596 C 628.68 658.156 626.218 657.356 623.621 656.885 C 611.157 654.622 600.056 662.689 597.928 675.095 Z" fill="rgb(1,26,54)" fill-rule="evenodd" />
<path d="M 603.022 481.987 C 621.819 490.427 640.011 500.17 658.659 508.922 C 665.219 512.001 671.766 515.266 678.147 518.703 C 680.965 520.221 684.198 521.372 686.553 523.595 C 686.266 524.031 684.863 524.138 684.339 524.272 C 682.24 524.807 680.124 525.295 678.036 525.872 C 672.007 527.536 665.901 529.02 659.819 530.48 C 657.343 531.075 654.052 531.126 651.796 532.323 C 654.298 536.403 657.807 539.957 660.763 543.716 C 665.933 550.295 671.154 556.854 676.408 563.365 C 678.131 565.5 679.755 567.709 681.466 569.853 C 682.666 571.356 684.197 572.731 685.113 574.434 C 683.659 575.924 681.291 576.916 679.563 578.105 C 675.658 580.792 671.729 583.602 667.567 585.873 C 666.549 585.369 665.553 583.826 664.849 582.936 C 663.149 580.789 661.37 578.706 659.693 576.541 C 654.194 569.44 648.454 562.53 642.905 555.47 C 641.281 553.403 639.585 551.409 637.894 549.398 C 637.068 548.415 636.148 546.901 634.978 546.366 C 634.133 547.114 633.701 548.564 633.217 549.574 C 631.977 552.161 630.745 554.751 629.694 557.422 C 626.778 564.834 623.096 572.063 620.53 579.59 C 619.285 578.443 618.818 575.732 618.226 574.177 C 616.588 569.882 615.204 565.495 613.609 561.184 C 607.559 544.838 601.641 528.452 595.856 512.01 C 594.382 507.941 592.986 503.879 591.658 499.752 C 591.313 498.682 590.137 496.261 590.665 495.151 C 590.844 494.773 591.688 495.19 591.885 495.245 C 592.923 495.534 592.985 495.031 593.88 494.945 C 594.329 494.902 594.287 495.385 594.755 495.299 C 597.441 494.805 597.866 492.988 599.605 491.37 C 600.21 490.808 600.862 491.588 601.19 491.32 C 601.537 491.036 601.262 490.314 601.314 489.953 C 601.485 488.758 601.621 488.659 601.381 487.438 C 601.251 486.777 601.748 486.581 601.865 486.011 C 602.237 484.202 601.297 483.553 603.022 481.987 Z" fill="rgb(2,41,63)" fill-rule="evenodd" />
<path d="M 625.64 344.289 C 624.497 344.41 624.467 345.465 624.424 346.499 C 624.328 348.833 624.423 351.203 624.425 353.541 C 624.435 364.027 624.609 374.516 624.663 385.006 C 624.692 390.673 624.267 396.38 624.417 402.036 C 624.455 403.453 624.602 404.842 624.582 406.262 C 624.58 406.466 624.584 407.587 624.994 407.602 C 625.314 407.614 625.532 407.255 625.786 407.061 C 626.64 406.736 627.559 407.505 627.906 408.317 C 627.122 408.759 626.382 409.292 625.705 409.883 C 624.799 409.206 623.958 407.399 623.181 406.427 C 621.271 404.035 619.332 401.616 617.138 399.474 C 613.43 395.854 609.342 392.444 605.315 389.183 C 603.426 387.654 600.464 385.917 599.207 383.816 C 598.667 382.913 598.822 381.525 598.775 380.507 C 598.667 378.192 598.607 375.873 598.578 373.556 C 598.495 367.038 598.337 360.52 598.311 354.001 C 598.299 351.195 597.705 347.649 598.327 344.934 C 602.287 342.002 607.103 338.771 611.611 336.782 C 613.057 337.199 614.357 338.204 615.679 338.912 C 618.483 340.414 621.27 341.946 624.063 343.467 C 624.627 343.696 625.144 343.935 625.64 344.289 Z" fill="rgb(2,193,124)" fill-rule="evenodd" />
<path d="M 625.64 344.289 C 627.763 345.009 629.816 346.365 631.789 347.427 C 634.903 349.105 638.101 350.629 641.235 352.27 C 651.246 357.513 661.298 362.68 671.306 367.929 C 674.984 369.859 678.687 371.741 682.371 373.661 C 683.259 374.125 685.573 375.003 685.897 375.985 C 684.034 377.205 681.794 378.021 679.83 379.098 C 674.164 382.206 668.538 385.392 662.903 388.554 C 654.63 393.198 646.37 397.875 638.112 402.535 C 634.707 404.456 631.434 406.617 627.906 408.317 C 627.559 407.505 626.64 406.736 625.786 407.061 C 625.532 407.255 625.314 407.614 624.994 407.602 C 624.584 407.587 624.58 406.466 624.582 406.262 C 624.602 404.842 624.455 403.453 624.417 402.036 C 624.267 396.38 624.692 390.673 624.663 385.006 C 624.609 374.516 624.435 364.027 624.425 353.541 C 624.423 351.203 624.328 348.833 624.424 346.499 C 624.467 345.465 624.497 344.41 625.64 344.289 Z" fill="rgb(1,172,114)" fill-rule="evenodd" />
<path d="M 625.906 414.939 C 629.877 412.934 633.554 410.402 637.446 408.245 C 651.875 400.251 666.136 391.943 680.585 383.994 C 683.319 382.49 685.875 380.609 688.644 379.19 C 689.151 379.717 688.735 382.213 688.737 382.995 C 688.75 386.998 688.743 391.002 688.755 395.005 C 688.786 406.32 688.785 417.637 688.851 428.952 C 688.872 432.542 688.901 436.131 688.898 439.721 C 688.896 441.31 689.167 443.263 688.748 444.797 C 678.047 450.674 667.553 456.973 657.079 463.247 C 653.606 465.327 649.911 467.029 646.456 469.137 C 642.356 471.639 638.155 473.963 634.074 476.491 C 631.478 478.099 628.758 480.273 625.949 481.43 C 625.304 479.691 625.776 476.864 625.757 475.002 C 625.711 470.337 625.661 465.669 625.684 461.004 C 625.732 451.17 625.771 441.338 625.776 431.504 C 625.779 426.027 625.489 420.395 625.906 414.939 Z" fill="rgb(1,210,134)" fill-rule="evenodd" />
<path d="M 670.447 615.083 C 670.859 613.345 671.638 611.782 672.741 610.388 C 674.657 607.964 677.465 605.888 680.573 605.367 C 689.668 603.842 698.298 612.1 695.991 621.344 C 693.87 629.841 683.352 633.478 676.063 628.922 C 672.94 626.969 671.117 623.835 670.415 620.285 C 670.091 618.644 670.06 616.718 670.447 615.083 Z" fill="rgb(2,212,135)" fill-rule="evenodd" />
<path d="M 673.352 640.762 C 680.012 640.318 686.745 640.604 693.413 640.569 C 693.674 642.635 693.38 644.911 693.378 647.006 C 693.373 651.174 693.393 655.341 693.391 659.509 C 693.384 673.506 693.361 687.509 693.421 701.507 C 693.448 707.733 692.846 714.259 693.425 720.449 C 686.878 720.425 679.964 719.756 673.455 720.425 C 672.759 719.882 673.257 716.456 673.247 715.51 C 673.195 710.676 673.226 705.841 673.238 701.006 C 673.287 680.927 673.145 660.838 673.352 640.762 Z" fill="rgb(2,26,54)" fill-rule="evenodd" />
<path d="M 709.779 610.231 C 714.297 609.845 718.966 610.153 723.505 610.116 C 725.298 610.102 728.108 609.529 729.744 610.193 C 729.362 617.593 729.652 625.087 729.647 632.501 C 729.636 646.835 729.675 661.168 729.703 675.503 C 729.724 685.836 729.646 696.169 729.704 706.503 C 729.729 711.043 729.317 715.807 729.782 720.32 C 723.271 720.496 716.358 719.667 709.909 720.483 C 709.058 717.161 709.692 712.929 709.685 709.502 C 709.67 701.837 709.684 694.17 709.707 686.504 C 709.757 669.505 709.754 652.504 709.758 635.505 C 709.76 627.096 710.045 618.633 709.779 610.231 Z" fill="rgb(1,26,54)" fill-rule="evenodd" />
<path d="M 741.48 678.613 C 741.785 672.286 743.207 666.051 746.193 660.429 C 755.801 642.341 778.471 633.595 797.776 640.332 C 804.087 642.534 809.512 646.069 814.196 650.819 C 817.67 654.34 820.584 658.473 822.449 663.07 C 825.037 669.45 826.095 676.239 825.776 683.111 C 825.53 688.408 824.25 693.595 822.025 698.398 C 819.398 704.069 815.679 708.947 810.843 712.938 C 793.54 727.214 766.126 725.274 751.573 708.079 C 748.568 704.528 745.964 700.424 744.3 696.067 C 742.176 690.506 741.193 684.569 741.48 678.613 Z M 761.969 677.112 C 760.959 686.28 764.161 695.846 772.165 700.998 C 779.967 706.02 791.319 704.873 798.106 698.661 C 802.21 694.904 804.755 689.405 805.374 683.915 C 806.239 676.236 804.246 667.91 798.453 662.477 C 790.144 654.686 776.156 654.548 768.178 663.024 C 764.571 666.857 762.54 671.927 761.969 677.112 Z" fill="rgb(1,26,55)" fill-rule="evenodd" />
<path d="M 830.864 640.758 C 834.242 640.13 837.912 640.575 841.347 640.407 C 841.432 635.781 841.39 631.133 841.409 626.499 C 841.418 624.45 841.074 622.106 841.471 620.099 C 848.254 619.899 855.042 620.036 861.835 620.116 C 861.45 623.658 861.768 627.432 861.763 631 C 861.758 634.118 861.427 637.404 861.781 640.5 C 865.274 640.21 868.989 640.677 872.508 640.726 C 876.485 640.781 880.579 640.4 884.537 640.771 C 884.374 644.978 884.628 649.268 884.679 653.505 C 884.688 654.298 885.199 657.455 884.68 657.981 C 877.158 657.401 869.395 658.262 861.848 658.219 C 861.578 667.811 861.796 677.404 861.631 686.997 C 861.562 691.076 860.58 696.843 863.065 700.418 C 864.681 702.742 867.498 703.573 870.206 703.672 C 874.674 703.836 879.06 703.075 883.15 701.25 C 884.366 704.193 884.684 707.899 885.474 711.01 C 886.003 713.092 887.162 715.297 887.332 717.435 C 886.398 718.289 884.174 718.774 882.965 719.224 C 879.269 720.601 875.366 721.495 871.426 721.788 C 867.58 722.075 863.532 721.878 859.8 720.85 C 857.06 720.095 854.497 719.022 852.072 717.533 C 841.446 711.007 841.251 699.097 841.246 688.004 C 841.243 682.171 841.174 676.337 841.241 670.505 C 841.286 666.664 842.11 661.879 841.154 658.147 C 837.749 658.238 834.329 657.751 830.93 657.939 C 830.37 656.731 830.827 654.373 830.811 653.007 C 830.763 648.931 830.691 644.829 830.864 640.758 Z" fill="rgb(1,26,55)" fill-rule="evenodd" />
</svg>
